<mxfile host="app.diagrams.net" modified="2024-06-10T10:36:47.665Z" agent="Mozilla/5.0 (X11; Linux x86_64) AppleWebKit/537.36 (KHTML, like Gecko) Chrome/125.0.0.0 Safari/537.36" version="24.5.2" etag="EwDe7su_Z4exza8eTCZX" type="github">
  <diagram name="Page-1" id="0ZoCZaRJWu7Wu8CSEo99">
    <mxGraphModel>
      <root>
        <mxCell id="0" />
        <mxCell id="1" parent="0" />
      </root>
    </mxGraphModel>
  </diagram>
</mxfile>
